<?xml version="1.0" encoding="UTF-8"?>
<svg xmlns="http://www.w3.org/2000/svg" xmlns:xlink="http://www.w3.org/1999/xlink" width="23px" height="23px" viewBox="0 0 23 23" version="1.1">
<g id="surface1">
<path style=" stroke:none;fill-rule:nonzero;fill:rgb(12.54902%,43.921569%,41.960784%);fill-opacity:1;" d="M 2.875 5.75 L 2.875 23 L 20.125 23 L 20.125 5.75 Z M 7.667969 19.167969 C 7.667969 19.699219 7.242188 20.125 6.707031 20.125 C 6.175781 20.125 5.75 19.699219 5.75 19.167969 L 5.75 9.582031 C 5.75 9.050781 6.175781 8.625 6.707031 8.625 C 7.242188 8.625 7.667969 9.050781 7.667969 9.582031 Z M 12.457031 19.167969 C 12.457031 19.699219 12.03125 20.125 11.5 20.125 C 10.96875 20.125 10.542969 19.699219 10.542969 19.167969 L 10.542969 9.582031 C 10.542969 9.050781 10.96875 8.625 11.5 8.625 C 12.03125 8.625 12.457031 9.050781 12.457031 9.582031 Z M 17.25 19.167969 C 17.25 19.699219 16.824219 20.125 16.292969 20.125 C 15.757812 20.125 15.332031 19.699219 15.332031 19.167969 L 15.332031 9.582031 C 15.332031 9.050781 15.757812 8.625 16.292969 8.625 C 16.824219 8.625 17.25 9.050781 17.25 9.582031 Z M 21.082031 1.917969 L 21.082031 3.832031 L 1.917969 3.832031 L 1.917969 1.917969 L 7.390625 1.917969 C 8.253906 1.917969 8.953125 0.863281 8.953125 0 L 14.046875 0 C 14.046875 0.863281 14.742188 1.917969 15.609375 1.917969 Z M 21.082031 1.917969 "/>
</g>
</svg>
