<?xml version="1.0" encoding="UTF-8"?>
<svg xmlns="http://www.w3.org/2000/svg" xmlns:xlink="http://www.w3.org/1999/xlink" width="29px" height="29px" viewBox="0 0 29 29" version="1.1">
<g id="surface1">
<path style=" stroke:none;fill-rule:nonzero;fill:rgb(12.54902%,43.921569%,41.960784%);fill-opacity:1;" d="M 22.601562 27.527344 L 2.382812 27.527344 C 1.867188 27.527344 1.453125 27.109375 1.453125 26.597656 L 1.453125 6.378906 C 1.453125 5.863281 1.867188 5.445312 2.382812 5.445312 L 12.488281 5.445312 C 13.007812 5.445312 13.425781 5.867188 13.425781 6.378906 C 13.425781 6.890625 13.007812 7.3125 12.488281 7.3125 L 3.316406 7.3125 L 3.316406 25.660156 L 21.664062 25.660156 L 21.664062 16.484375 C 21.664062 15.972656 22.082031 15.554688 22.601562 15.554688 C 23.113281 15.554688 23.53125 15.972656 23.53125 16.484375 L 23.53125 26.597656 C 23.53125 27.109375 23.113281 27.527344 22.601562 27.527344 Z M 22.601562 27.527344 "/>
<path style=" stroke:none;fill-rule:nonzero;fill:rgb(12.54902%,43.921569%,41.960784%);fill-opacity:1;" d="M 27.277344 4.652344 L 24.371094 1.746094 C 24.003906 1.378906 23.414062 1.378906 23.050781 1.746094 L 20.421875 4.375 L 10.265625 14.535156 C 10.179688 14.617188 10.113281 14.714844 10.0625 14.824219 L 7.890625 19.90625 C 7.738281 20.257812 7.820312 20.664062 8.089844 20.933594 C 8.269531 21.113281 8.503906 21.203125 8.746094 21.203125 C 8.871094 21.203125 8.996094 21.179688 9.121094 21.128906 L 14.195312 18.957031 C 14.304688 18.910156 14.40625 18.839844 14.488281 18.757812 L 24.644531 8.597656 L 27.277344 5.972656 C 27.640625 5.605469 27.640625 5.011719 27.277344 4.652344 Z M 10.523438 18.5 L 11.371094 16.519531 L 12.5 17.652344 Z M 13.609375 17 L 12.023438 15.414062 L 21.171875 6.261719 L 22.757812 7.847656 Z M 23.636719 6.96875 L 22.050781 5.382812 L 23.710938 3.726562 L 25.296875 5.308594 Z M 23.636719 6.96875 "/>
</g>
</svg>
